<svg width="637" height="469" viewBox="0 0 637 469" fill="none" xmlns="http://www.w3.org/2000/svg">
<g clip-path="url(#clip0_23_2)">
<path d="M525.889 419.388C525.938 419.312 525.992 419.239 526.049 419.168C526.191 418.861 526.369 418.569 526.581 418.298L544.175 395.604L558.672 376.915H583.399L581.651 379.165L578.539 383.181L568.896 395.611L548.231 422.257L567.385 457.728C568.168 459.172 566.833 461.248 564.42 462.357L555.182 466.599C554.265 467.031 553.254 467.265 552.224 467.283C550.924 467.283 549.84 466.838 549.385 465.993L525.574 421.896C525.386 421.488 525.317 421.043 525.372 420.603C525.427 420.164 525.605 419.745 525.889 419.388Z" fill="#77F14F"/>
<path d="M559.163 418.028L534.253 409.496C533.124 409.107 532.208 408.322 531.706 407.312C531.204 406.302 531.157 405.15 531.576 404.108L538.882 385.978C539.304 384.937 540.155 384.092 541.251 383.629C542.346 383.167 543.596 383.123 544.726 383.509L569.636 392.041C570.765 392.43 571.681 393.215 572.183 394.225C572.685 395.235 572.732 396.388 572.314 397.43L565.007 415.56C564.799 416.076 564.483 416.549 564.077 416.952C563.671 417.355 563.182 417.681 562.64 417.91C562.097 418.139 561.51 418.268 560.914 418.288C560.317 418.308 559.722 418.22 559.163 418.028H559.163Z" fill="#2F2E41"/>
<path d="M537.982 407.95C537.813 407.95 537.647 407.922 537.489 407.867H537.489C537.142 407.746 536.862 407.503 536.709 407.191C536.557 406.88 536.544 406.525 536.675 406.205L545.821 383.891C545.952 383.571 546.216 383.312 546.554 383.171C546.892 383.031 547.277 383.02 547.624 383.141C547.971 383.261 548.251 383.504 548.404 383.816C548.557 384.128 548.569 384.483 548.438 384.803L539.292 407.117C539.191 407.362 539.012 407.573 538.778 407.722C538.544 407.87 538.266 407.95 537.982 407.95Z" fill="white"/>
<path d="M578.175 463.963V383.368C578.173 383.293 578.178 383.218 578.19 383.144C578.233 382.209 578.57 381.306 579.162 380.545C579.754 379.785 580.574 379.201 581.522 378.865C582.126 378.644 582.77 378.531 583.42 378.533H593.742C595.132 378.534 596.465 379.044 597.448 379.95C598.432 380.857 598.985 382.086 598.986 383.368V463.963C598.985 465.244 598.432 466.473 597.448 467.38C596.465 468.286 595.132 468.796 593.742 468.798H583.42C582.029 468.796 580.696 468.286 579.713 467.38C578.73 466.473 578.177 465.244 578.175 463.963Z" fill="#77F14F"/>
<path d="M572.574 413.663V394.322C572.575 393.211 573.055 392.145 573.907 391.36C574.759 390.574 575.914 390.132 577.119 390.131H603.692C604.898 390.132 606.053 390.574 606.905 391.36C607.757 392.145 608.237 393.211 608.238 394.322V413.663C608.237 414.774 607.757 415.839 606.905 416.624C606.053 417.41 604.898 417.852 603.692 417.853H577.119C575.914 417.852 574.759 417.41 573.907 416.624C573.055 415.839 572.575 414.774 572.574 413.663Z" fill="#2F2E41"/>
<path d="M592.906 415.812C592.535 415.812 592.179 415.676 591.917 415.434C591.655 415.192 591.508 414.864 591.507 414.523V390.668C591.507 390.326 591.655 389.999 591.917 389.757C592.179 389.515 592.535 389.379 592.906 389.379C593.277 389.379 593.632 389.515 593.895 389.757C594.157 389.999 594.304 390.326 594.304 390.668V414.523C594.304 414.864 594.156 415.192 593.894 415.434C593.632 415.676 593.277 415.812 592.906 415.812Z" fill="white"/>
<path d="M545.12 322.066L468.66 285.724C467.426 285.134 466.496 284.117 466.073 282.897C465.65 281.676 465.769 280.351 466.403 279.21L471.131 270.751C471.771 269.614 472.874 268.757 474.198 268.367C475.522 267.977 476.96 268.087 478.196 268.672L554.658 305.015C555.042 305.196 555.399 305.423 555.72 305.69C556.598 306.4 557.193 307.361 557.409 308.419C557.625 309.477 557.451 310.572 556.913 311.528L552.185 319.987C551.87 320.552 551.437 321.054 550.91 321.465C550.384 321.875 549.775 322.185 549.118 322.378C548.598 322.527 548.056 322.604 547.511 322.604C546.679 322.604 545.859 322.419 545.12 322.066Z" fill="#77F14F"/>
<path d="M546.606 324.156L509.433 310.625C508.192 310.049 507.248 309.044 506.81 307.828C506.371 306.613 506.472 305.287 507.092 304.141L515.569 288.033C516.196 286.89 517.286 286.021 518.604 285.615C519.267 285.413 519.967 285.335 520.663 285.386C521.359 285.437 522.037 285.615 522.657 285.91L556.226 304.67C556.357 304.731 556.477 304.808 556.584 304.9C557.439 305.61 557.866 307.314 558.208 308.682L558.262 308.895C558.355 309.262 558.436 309.578 558.518 309.8L558.545 309.885C558.575 309.976 558.606 310.069 558.626 310.155C558.927 311.272 558.783 312.451 558.222 313.478L553.593 321.982C553.151 322.783 552.478 323.456 551.648 323.928C550.818 324.399 549.863 324.651 548.889 324.655C548.096 324.656 547.314 324.485 546.606 324.156Z" fill="#2F2E41"/>
<path d="M574.027 280.014C594.697 280.014 611.453 264.566 611.453 245.509C611.453 226.453 594.697 211.005 574.027 211.005C553.357 211.005 536.601 226.453 536.601 245.509C536.601 264.566 553.357 280.014 574.027 280.014Z" fill="#77F14F"/>
<path d="M576.212 264.1L576.251 262.811C573.649 262.744 571.355 262.594 569.631 261.433C569.143 261.085 568.741 260.644 568.454 260.14C568.166 259.636 568 259.081 567.966 258.513C567.936 258.166 567.993 257.817 568.133 257.493C568.272 257.17 568.491 256.88 568.772 256.647C569.916 255.756 571.758 256.045 573.099 256.612L574.257 257.101L572.038 242.15L570.652 242.325L572.539 255.043C570.716 254.549 569.027 254.761 567.869 255.662C567.425 256.02 567.077 256.467 566.851 256.97C566.625 257.472 566.529 258.016 566.568 258.559C566.609 259.322 566.831 260.068 567.217 260.745C567.604 261.421 568.146 262.011 568.806 262.474C571.021 263.966 573.899 264.04 576.212 264.1Z" fill="#2F2E41"/>
<path d="M563.799 243.422H556.267V244.711H563.799V243.422Z" fill="#2F2E41"/>
<path d="M587.575 243.422H580.043V244.711H587.575V243.422Z" fill="#2F2E41"/>
<path d="M539.91 395.917C537.439 395.785 535.511 392.039 535.511 387.341V326.95C535.51 324.009 535.911 321.079 536.704 318.231L536.704 318.23C536.992 317.206 537.334 316.187 537.72 315.205C540.068 309.157 544.189 303.827 549.626 299.81C550.24 299.348 550.882 298.9 551.533 298.481C554.7 296.421 558.193 294.825 561.89 293.752C561.788 293.327 561.736 292.893 561.735 292.458C561.737 290.834 562.437 289.278 563.683 288.129C564.928 286.981 566.617 286.335 568.378 286.334H578.168C579.929 286.335 581.618 286.981 582.864 288.129C584.109 289.278 584.81 290.834 584.812 292.458C584.81 292.892 584.758 293.325 584.657 293.749C592.308 295.983 598.99 300.405 603.733 306.374C608.475 312.344 611.033 319.55 611.035 326.95V387.341C611.035 392.159 609.039 395.933 606.49 395.933H540.056C540.007 395.934 539.958 395.929 539.91 395.917Z" fill="#2F2E41"/>
<path d="M583.157 401.43C582.722 400.726 582.486 399.934 582.469 399.124L580.998 319.83C580.986 319.195 581.109 318.564 581.362 317.973C581.614 317.382 581.991 316.843 582.469 316.386L582.471 316.385C582.949 315.928 583.52 315.562 584.152 315.309C584.783 315.056 585.463 314.92 586.151 314.909L596.473 314.749C597.773 314.728 599.036 315.153 600.015 315.941C600.995 316.73 601.621 317.827 601.772 319.018C601.794 319.176 601.806 319.336 601.806 319.496L603.283 398.796C603.303 400.078 602.771 401.314 601.804 402.236C600.838 403.157 599.514 403.688 598.124 403.712L587.806 403.876C586.865 403.888 585.937 403.668 585.119 403.238C584.302 402.808 583.624 402.183 583.157 401.43V401.43Z" fill="#77F14F"/>
<path d="M578.819 346.977C578.428 346.343 578.197 345.636 578.144 344.909L578.585 308.171C578.478 306.893 578.925 305.628 579.829 304.653C580.732 303.679 582.018 303.074 583.404 302.973L593.693 302.23C594.946 302.141 596.191 302.468 597.206 303.15C597.311 303.224 597.417 303.314 597.52 303.378C597.777 303.575 598.045 303.76 598.323 303.932L598.546 304.078C600.025 305.044 601.701 306.138 601.782 307.204L607.973 343.046C608.065 344.07 607.796 345.093 607.206 345.964C607.067 346.178 606.909 346.381 606.732 346.57C606.578 346.738 606.409 346.894 606.228 347.037C605.374 347.745 604.29 348.172 603.145 348.252L583.781 349.403C582.79 349.474 581.797 349.283 580.919 348.853C580.04 348.424 579.312 347.773 578.819 346.977V346.977Z" fill="#2F2E41"/>
<path d="M542.556 387.445C542.186 387.445 541.83 387.309 541.568 387.067C541.306 386.825 541.158 386.497 541.158 386.156V323.619C541.158 323.277 541.305 322.949 541.567 322.707C541.83 322.466 542.185 322.33 542.556 322.33C542.927 322.33 543.283 322.466 543.545 322.707C543.808 322.949 543.955 323.277 543.955 323.619V386.156C543.955 386.497 543.807 386.825 543.545 387.067C543.283 387.309 542.927 387.445 542.556 387.445Z" fill="white"/>
<path d="M607.97 237.313L542.953 215.385C542.608 215.269 542.292 215.091 542.021 214.861C541.751 214.632 541.532 214.356 541.377 214.049C541.223 213.742 541.135 213.41 541.12 213.071C541.104 212.733 541.161 212.395 541.287 212.077L541.507 211.118C546.585 198.322 563.415 190.269 577.295 194.95L597.302 201.698C611.182 206.379 617.214 221.531 612.136 234.328L611.558 235.777C611.303 236.419 610.782 236.942 610.109 237.23C609.436 237.518 608.666 237.548 607.97 237.313Z" fill="#2F2E41"/>
<path d="M611.472 238.53C520.852 241.612 512.934 231.115 540.545 214.608L546.402 204.671L613.535 227.236L611.472 238.53Z" fill="#2F2E41"/>
<path d="M593.703 200.124C594.203 198.59 592.06 196.639 588.917 195.768C585.773 194.897 582.819 195.435 582.318 196.969C581.818 198.504 583.961 200.454 587.105 201.325C590.249 202.196 593.203 201.659 593.703 200.124Z" fill="#2F2E41"/>
<path d="M198.311 0C133.335 0 80.4812 48.7274 80.4812 108.631C80.4627 123.965 83.9845 139.126 90.8125 153.108C109.279 190.895 150.51 217.261 198.311 217.261C229.556 217.245 259.516 205.795 281.609 185.427C303.703 165.058 316.123 137.436 316.14 108.631C316.14 48.7274 263.277 0 198.311 0ZM295.798 152.3C286.9 169.159 273.043 183.374 255.806 193.323C238.569 203.272 218.647 208.556 198.311 208.571C152.376 208.571 113.021 182.091 97.2696 144.818C92.3879 133.285 89.8909 121.011 89.9076 108.631C89.9076 53.5245 138.538 8.69046 198.311 8.69046C258.083 8.69046 306.714 53.5245 306.714 108.631C306.734 123.764 303 138.701 295.798 152.3Z" fill="#E6E6E6"/>
<path d="M198.311 217.584C175.992 217.567 154.133 211.731 135.258 200.749C116.384 189.767 101.263 174.087 91.6423 155.521C91.2583 154.78 91.0916 153.96 91.1588 153.142C91.226 152.323 91.5247 151.536 92.0253 150.857L92.0884 150.772C92.5883 150.104 93.2697 149.57 94.0645 149.222C94.8593 148.874 95.7393 148.725 96.6164 148.789C97.4934 148.854 98.3366 149.13 99.0612 149.59C99.7859 150.05 100.367 150.678 100.745 151.41C118.621 185.938 156.918 208.249 198.311 208.249C217.226 208.204 235.801 203.601 252.192 194.896C268.582 186.191 282.219 173.686 291.75 158.622C292.193 157.914 292.831 157.328 293.6 156.921C294.369 156.515 295.241 156.304 296.127 156.309C297.003 156.307 297.865 156.52 298.622 156.927C299.38 157.334 300.006 157.92 300.436 158.625L300.491 158.714C300.927 159.425 301.154 160.228 301.149 161.045C301.145 161.862 300.908 162.663 300.464 163.37C290.037 179.829 275.126 193.491 257.207 203.001C239.289 212.51 218.986 217.537 198.311 217.584Z" fill="#77F14F"/>
<path d="M171.753 118.567C174.955 118.547 178.066 119.554 180.554 121.414C183.041 123.273 184.751 125.872 185.392 128.765C186.033 131.658 185.565 134.666 184.068 137.276C182.571 139.887 180.137 141.937 177.183 143.077C174.229 144.217 170.937 144.377 167.869 143.529C164.801 142.68 162.148 140.877 160.362 138.426C158.576 135.974 157.769 133.028 158.077 130.089C158.385 127.15 159.791 124.401 162.053 122.31C163.321 121.126 164.831 120.185 166.496 119.543C168.161 118.9 169.948 118.568 171.753 118.567ZM171.753 113.135C167.868 113.133 164.07 114.193 160.839 116.181C157.607 118.17 155.088 120.996 153.6 124.305C152.111 127.613 151.72 131.254 152.476 134.767C153.232 138.28 155.1 141.507 157.846 144.041C160.591 146.575 164.09 148.301 167.9 149.002C171.71 149.702 175.659 149.346 179.249 147.977C182.839 146.608 185.908 144.289 188.068 141.312C190.228 138.335 191.382 134.835 191.384 131.253C191.387 126.45 189.32 121.843 185.638 118.446C181.957 115.048 176.962 113.138 171.753 113.135H171.753ZM212.677 87.2382C214.454 87.2465 216.162 86.6038 217.424 85.4514C218.687 84.299 219.402 82.7314 219.411 81.0934C219.411 81.0725 219.411 81.0516 219.411 81.0307C219.419 80.2283 219.256 79.4322 218.93 78.6879C218.605 77.9437 218.124 77.2658 217.514 76.693C216.904 76.1201 216.178 75.6636 215.377 75.3495C214.577 75.0353 213.716 74.8697 212.846 74.8621C212.804 74.8617 212.762 74.8617 212.72 74.8621C210.939 74.8466 209.226 75.4837 207.955 76.6332C206.684 77.7827 205.961 79.3505 205.944 80.9917C205.928 82.6328 206.619 84.2129 207.865 85.3843C209.112 86.5557 210.813 87.2225 212.593 87.238C212.621 87.2382 212.649 87.2383 212.677 87.2382ZM226.754 118.567C229.957 118.547 233.067 119.554 235.555 121.414C238.042 123.273 239.753 125.872 240.393 128.765C241.034 131.658 240.566 134.666 239.069 137.276C237.572 139.887 235.139 141.937 232.184 143.077C229.23 144.217 225.938 144.377 222.87 143.529C219.802 142.68 217.149 140.877 215.363 138.426C213.578 135.974 212.77 133.028 213.078 130.089C213.386 127.15 214.792 124.401 217.054 122.31C218.322 121.126 219.832 120.185 221.497 119.543C223.162 118.9 224.949 118.568 226.754 118.567ZM226.754 113.135C222.871 113.135 219.076 114.196 215.847 116.185C212.619 118.174 210.103 121.001 208.617 124.308C207.131 127.615 206.742 131.254 207.5 134.765C208.257 138.275 210.127 141.5 212.872 144.031C215.618 146.562 219.116 148.286 222.924 148.985C226.732 149.683 230.679 149.324 234.266 147.955C237.854 146.585 240.92 144.265 243.077 141.289C245.234 138.312 246.385 134.813 246.385 131.234C246.385 128.857 245.877 126.503 244.891 124.308C243.904 122.112 242.458 120.117 240.635 118.436C238.812 116.755 236.648 115.422 234.266 114.513C231.885 113.603 229.332 113.135 226.754 113.135Z" fill="#E6E6E6"/>
<path d="M222.819 99.6919H212.72L206.512 88.0336C206.012 87.216 205.312 86.5168 204.468 85.9908C203.625 85.4648 202.66 85.1265 201.651 85.0024C200.641 84.8783 199.614 84.9718 198.651 85.2756C197.687 85.5795 196.813 86.0852 196.097 86.7532L181.011 100.158C179.776 101.32 179.075 102.876 179.054 104.503C179.054 107.878 181.705 109.081 182.946 109.76C192.52 114.842 195.887 115.405 195.887 117.946V130.729C195.887 131.552 196.241 132.342 196.873 132.924C197.504 133.506 198.36 133.833 199.253 133.833C200.146 133.833 201.002 133.506 201.634 132.924C202.265 132.342 202.62 131.552 202.62 130.729V113.271C202.62 110.71 196.223 108.615 192.457 105.899L202.746 95.9093C206.681 101.438 208.49 105.899 210.742 105.899H222.819C223.712 105.901 224.569 105.575 225.201 104.994C225.834 104.413 226.19 103.624 226.191 102.801C226.193 101.978 225.839 101.188 225.209 100.605C224.579 100.022 223.723 99.6933 222.83 99.692H222.819V99.6919Z" fill="#E6E6E6"/>
<path d="M103.535 275.841C100.635 275.841 98.234 283.625 97.7686 293.832H41.9763C41.5109 283.625 39.1098 275.841 36.2097 275.841C32.9764 275.841 30.3553 285.507 30.3553 297.43C30.3553 309.354 32.9764 319.02 36.2097 319.02C39.1098 319.02 41.5109 311.235 41.9763 301.028H97.7686C98.2339 311.235 100.635 319.02 103.535 319.02C106.768 319.02 109.39 309.354 109.39 297.43C109.39 285.507 106.768 275.841 103.535 275.841Z" fill="#E6E6E6"/>
<path d="M130.712 265.555C122.443 251.891 109.055 241.474 93.0545 236.255C77.0544 231.036 59.5395 231.373 43.7894 237.203C28.0393 243.032 15.134 253.955 7.48993 267.925C-0.154123 281.895 -2.01275 297.955 2.26207 313.097C6.53689 328.24 16.652 341.427 30.7135 350.188C44.7749 358.95 61.8184 362.687 78.6526 360.698C95.4869 358.709 110.958 351.131 122.168 339.383C133.378 327.635 139.559 312.522 139.554 296.875C139.55 285.911 136.507 275.13 130.712 265.555ZM69.7612 356.066C52.8455 355.986 36.6546 349.725 24.7394 338.655C12.8242 327.585 6.15738 312.61 6.20115 297.015C6.24491 281.42 12.9957 266.477 24.9729 255.464C36.9501 244.451 53.1759 238.267 70.0918 238.268C87.0077 238.269 103.233 244.455 115.208 255.47C127.184 266.484 133.933 281.428 133.974 297.023C134.016 312.618 127.347 327.592 115.43 338.66C103.513 349.729 87.3214 355.988 70.4057 356.066C70.1909 356.067 69.976 356.067 69.7612 356.066Z" fill="#E6E6E6"/>
<path d="M69.7953 361.542C56.497 361.548 43.472 358.061 32.2452 351.49C31.6845 351.16 31.2518 350.675 31.0094 350.104L30.9742 350.02C30.7305 349.455 30.6905 348.832 30.8599 348.244C31.0294 347.655 31.3995 347.133 31.9155 346.753C32.4144 346.367 33.0348 346.138 33.6853 346.101C34.3358 346.065 34.9819 346.222 35.5281 346.55C47.4612 353.552 61.5795 356.702 75.665 355.504C89.7506 354.305 103.005 348.827 113.347 339.929C123.688 331.031 130.531 319.218 132.799 306.346C135.067 293.474 132.633 280.271 125.878 268.813C125.561 268.288 125.436 267.683 125.521 267.087C125.605 266.491 125.896 265.936 126.348 265.503C126.796 265.055 127.387 264.751 128.036 264.636C128.685 264.521 129.357 264.601 129.952 264.864L130.04 264.902C130.638 265.16 131.131 265.586 131.449 266.119C137.231 275.963 140.14 287.023 139.893 298.215C139.646 309.408 136.25 320.349 130.039 329.968C123.827 339.587 115.012 347.554 104.458 353.088C93.9033 358.623 81.9705 361.536 69.8279 361.542H69.7953Z" fill="#77F14F"/>
<path d="M326.828 232.543C317.661 232.539 308.583 234.2 300.113 237.431C291.642 240.663 283.945 245.4 277.461 251.375C270.977 257.349 265.834 264.442 262.323 272.249C258.813 280.056 257.006 288.424 257.004 296.875C257.003 305.326 258.807 313.695 262.314 321.503C265.821 329.312 270.962 336.406 277.443 342.383C283.925 348.359 291.62 353.099 300.089 356.333C308.558 359.567 317.636 361.232 326.802 361.231H326.828C327.28 361.231 327.723 361.231 328.176 361.214C346.566 360.887 364.072 353.881 376.889 341.718C389.706 329.555 396.797 313.219 396.619 296.263C396.441 279.306 389.01 263.1 375.941 251.167C362.871 239.235 345.221 232.542 326.828 232.543V232.543ZM341.052 354.609C332.243 356.453 323.11 356.563 314.252 354.931C305.393 353.299 297.008 349.962 289.643 345.138C282.279 340.314 276.102 334.112 271.516 326.937C266.929 319.761 264.037 311.775 263.027 303.498C262.018 295.222 262.914 286.842 265.657 278.907C268.4 270.972 272.929 263.66 278.947 257.448C284.965 251.237 292.337 246.266 300.581 242.861C308.825 239.456 317.756 237.693 326.79 237.687H326.828C342.618 237.687 357.856 243.05 369.627 252.753C381.399 262.456 388.88 275.818 390.64 290.285C392.4 304.752 388.316 319.31 379.168 331.176C370.02 343.042 356.451 351.385 341.052 354.609Z" fill="#E6E6E6"/>
<path d="M326.828 361.553C309.518 361.553 292.819 355.652 279.944 344.985C267.069 334.318 258.927 319.639 257.084 303.771C255.241 287.903 259.827 271.967 269.961 259.028C280.095 246.09 295.06 237.063 311.977 233.685C312.393 233.602 312.823 233.597 313.241 233.669L313.387 233.695C314.089 233.82 314.722 234.165 315.181 234.671C315.639 235.178 315.893 235.814 315.902 236.473C315.91 237.132 315.671 237.774 315.226 238.289C314.781 238.805 314.156 239.163 313.458 239.304C298.036 242.352 284.384 250.553 275.129 262.328C265.875 274.103 261.674 288.618 263.335 303.078C264.997 317.537 272.403 330.919 284.127 340.645C295.852 350.371 311.065 355.753 326.837 355.755C327.454 355.75 328.054 355.747 328.663 355.731C329.342 355.705 330.009 355.9 330.548 356.282C331.086 356.665 331.462 357.209 331.608 357.821C331.769 358.412 331.698 359.037 331.407 359.584C331.116 360.132 330.625 360.566 330.019 360.812V360.812C329.609 360.986 329.196 361.156 328.781 361.323C328.432 361.466 328.056 361.542 327.674 361.549C327.392 361.553 327.112 361.553 326.828 361.553Z" fill="#77F14F"/>
<path d="M361.259 294.151C359.399 294.065 357.56 294.543 356.023 295.51C354.485 296.478 353.333 297.883 352.742 299.51H345.869L340.851 285.599C340.665 285.078 340.305 284.624 339.823 284.302C339.34 283.98 338.76 283.807 338.165 283.807H338.112C337.508 283.816 336.923 284.004 336.446 284.345C335.968 284.686 335.623 285.16 335.462 285.697L327.599 310.995L318.358 259.829C318.251 259.237 317.926 258.696 317.438 258.299C316.95 257.901 316.328 257.671 315.677 257.646C315.027 257.621 314.386 257.804 313.864 258.162C313.342 258.521 312.97 259.035 312.81 259.617L303.445 299.51H292.95C292.2 299.51 291.481 299.785 290.951 300.274C290.421 300.763 290.123 301.426 290.123 302.117C290.123 302.808 290.421 303.471 290.951 303.96C291.481 304.449 292.2 304.723 292.95 304.723H305.672C306.301 304.724 306.913 304.53 307.41 304.173C307.906 303.816 308.258 303.316 308.41 302.752L315.019 273.072L324.083 323.228C324.186 323.813 324.504 324.346 324.984 324.741C325.463 325.135 326.074 325.366 326.715 325.395H326.874C327.489 325.394 328.086 325.209 328.577 324.869C329.068 324.528 329.425 324.049 329.596 323.505L338.377 295.226L341.151 302.931C341.34 303.451 341.701 303.903 342.182 304.224C342.664 304.545 343.242 304.72 343.837 304.723H352.866C353.406 306.041 354.322 307.2 355.517 308.078C356.712 308.956 358.143 309.519 359.657 309.71C361.171 309.9 362.713 309.709 364.119 309.158C365.526 308.607 366.745 307.716 367.647 306.579C368.55 305.443 369.102 304.102 369.247 302.699C369.391 301.297 369.122 299.884 368.467 298.611C367.813 297.338 366.798 296.252 365.529 295.467C364.26 294.682 362.784 294.227 361.258 294.151H361.259Z" fill="#E6E6E6"/>
<path d="M636.301 469H508.329C508.144 469 507.966 468.932 507.835 468.811C507.704 468.69 507.63 468.526 507.63 468.355C507.63 468.184 507.704 468.02 507.835 467.899C507.966 467.779 508.144 467.711 508.329 467.711H636.301C636.486 467.711 636.664 467.779 636.795 467.899C636.926 468.02 637 468.184 637 468.355C637 468.526 636.926 468.69 636.795 468.811C636.664 468.932 636.486 469 636.301 469Z" fill="#3F3D56"/>
</g>
<defs>
<clipPath id="clip0_23_2">
<rect width="637" height="469" fill="white"/>
</clipPath>
</defs>
</svg>
